<?xml version="1.0" encoding="UTF-8"?>
<svg version="1.1" xmlns="http://www.w3.org/2000/svg" width="500" height="500">
<path d="M0 0 C6.99923418 3.49961709 12.49838089 8.49838089 18 14 C19.48813957 15.1817579 20.98936021 16.34714332 22.5 17.5 C25.94095609 20.1289813 28.97445356 22.89483392 32 26 C33.69976407 27.48235239 35.42099755 28.93441306 37.15625 30.375 C39.54493581 32.48028241 41.75006148 34.74684268 44 37 C46.37724232 39.27009706 48.78050676 41.51152144 51.1875 43.75 C51.81591797 44.33910156 52.44433594 44.92820313 53.09179688 45.53515625 C53.69443359 46.09589844 54.29707031 46.65664062 54.91796875 47.234375 C55.73430786 47.99572754 55.73430786 47.99572754 56.56713867 48.77246094 C58.00175474 50.10183176 58.00175474 50.10183176 60 51 C60.33 35.49 60.66 19.98 61 4 C67.93 4 74.86 4 82 4 C82 34.69 82 65.38 82 97 C77.0082594 93.25619455 72.14755819 89.56167328 67.4375 85.5 C66.55022217 84.73731812 66.55022217 84.73731812 65.64501953 83.95922852 C59.19251893 78.36813421 52.98475421 72.51970858 46.77099609 66.66650391 C44.08716479 64.14102383 41.39301727 61.62722536 38.6875 59.125 C37.82511719 58.32320313 36.96273437 57.52140625 36.07421875 56.6953125 C31.84048763 52.98340085 27.39669827 49.51735861 23 46 C22.67 61.18 22.34 76.36 22 92 C14.74 92 7.48 92 0 92 C0 61.64 0 31.28 0 0 Z " fill="#EEEEEE" transform="translate(130,201)"/>
<path d="M0 0 C9.24 0 18.48 0 28 0 C30.1346875 3.7434375 30.1346875 3.7434375 32.3125 7.5625 C32.9763269 8.71987671 32.9763269 8.71987671 33.65356445 9.90063477 C36.07333434 14.17430893 38.15214069 18.44912319 40 23 C41.2347736 21.04519712 42.46248352 19.08593211 43.6875 17.125 C44.37199219 16.03445312 45.05648437 14.94390625 45.76171875 13.8203125 C48.39058275 9.3333509 50.67432804 4.65134392 53 0 C62.24 0 71.48 0 81 0 C79.49760564 3.7559859 78.15972468 6.54665222 76.0234375 9.87890625 C75.43852539 10.79510742 74.85361328 11.71130859 74.25097656 12.65527344 C73.6319043 13.6146582 73.01283203 14.57404297 72.375 15.5625 C71.74561523 16.54379883 71.11623047 17.52509766 70.46777344 18.53613281 C57.88128255 38.11871745 57.88128255 38.11871745 55 41 C55.28836149 45.18475822 56.89602455 47.56534324 59.4375 50.8125 C63.81682408 56.63074485 67.63703722 62.70341334 71.45703125 68.8984375 C74.33357152 73.56267699 77.30954886 78.16094971 80.30834961 82.74731445 C83 86.89334899 83 86.89334899 83 88 C73.76 88 64.52 88 55 88 C52.875625 84.101875 50.75125 80.20375 48.5625 76.1875 C47.8929126 74.96184326 47.2233252 73.73618652 46.53344727 72.47338867 C46.00807373 71.5063501 45.4827002 70.53931152 44.94140625 69.54296875 C44.40201416 68.55321045 43.86262207 67.56345215 43.30688477 66.54370117 C42 64 42 64 41 61 C40.34 61 39.68 61 39 61 C38.73832031 61.87011719 38.47664063 62.74023438 38.20703125 63.63671875 C37.00127973 66.99643415 35.52946301 69.76162114 33.6875 72.8125 C30.67563253 77.82776695 27.84779326 82.87397214 25 88 C15.76 88 6.52 88 -3 88 C-0.69 84.37 1.62 80.74 4 77 C5.71509766 74.2775 5.71509766 74.2775 7.46484375 71.5 C19.42462856 52.53573062 19.42462856 52.53573062 26 44 C22.54146145 37.35418083 18.78126401 30.99136964 14.68994141 24.71557617 C11.35636769 19.58963099 8.13097674 14.40177203 4.9375 9.1875 C4.44805908 8.39206787 3.95861816 7.59663574 3.4543457 6.77709961 C2.77891724 5.67120483 2.77891724 5.67120483 2.08984375 4.54296875 C1.68628662 3.88321045 1.28272949 3.22345215 0.86694336 2.54370117 C0 1 0 1 0 0 Z " fill="#EEEEEE" transform="translate(373,205)"/>
<path d="M0 0 C8.25 0 16.5 0 25 0 C25.09045154 13.03058766 25.16380314 26.06096602 25.20724869 39.09179688 C25.22810277 45.14285976 25.25638118 51.19369628 25.30175781 57.24462891 C25.34529242 63.08664163 25.3691535 68.92843692 25.37950897 74.77059937 C25.3868866 76.99689149 25.4012934 79.22317203 25.42292023 81.44937134 C25.45205473 84.57327781 25.45595171 87.69629153 25.45410156 90.8203125 C25.47567322 92.19380608 25.47567322 92.19380608 25.49768066 93.595047 C25.45376573 100.47002712 23.79078299 105.68879128 19.32421875 110.98828125 C13.76961151 115.48234295 8.21070851 118.30666264 1 119 C0.24332031 119.07605469 -0.51335938 119.15210938 -1.29296875 119.23046875 C-10.9424309 119.75783965 -20.53205446 116.54170513 -29 112 C-27.53416665 107.45928635 -24.95468267 104.23733031 -21.875 100.6875 C-21.40707031 100.13771484 -20.93914063 99.58792969 -20.45703125 99.02148438 C-19.31047517 97.67603591 -18.15602549 96.337321 -17 95 C-15.2828776 95.77107747 -13.56575521 96.54215495 -11.84863281 97.31323242 C-9.13319025 98.32202005 -6.85572593 98.32451431 -4 98 C-0.75150023 96.27773504 -0.75150023 96.27773504 0 93 C0.09169534 90.03276394 0.12594642 87.08942724 0.11352539 84.12231445 C0.11367142 83.21479431 0.11381744 82.30727417 0.1139679 81.37225342 C0.11327061 78.36923848 0.10548676 75.36628537 0.09765625 72.36328125 C0.09579142 70.28248631 0.09436782 68.20169092 0.09336853 66.12089539 C0.08954849 60.6414977 0.07972255 55.16212648 0.06866455 49.68273926 C0.05843943 44.09253294 0.05386855 38.50232235 0.04882812 32.91210938 C0.03809985 21.94139275 0.02050717 10.97070271 0 0 Z " fill="#E7E7E7" transform="translate(48,205)"/>
<path d="M0 0 C18.15 0 36.3 0 55 0 C55 6.27 55 12.54 55 19 C44.11 19 33.22 19 22 19 C22.33 19.99 22.66 20.98 23 22 C23 25.96 23 29.92 23 34 C33.23 34.33 43.46 34.66 54 35 C54 40.94 54 46.88 54 53 C43.44 53 32.88 53 22 53 C22.33 54.32 22.66 55.64 23 57 C23.01574366 59.39091391 22.96703768 61.78253408 22.87890625 64.171875 C22.85529526 64.8542926 22.83168427 65.53671021 22.80735779 66.23980713 C22.7310504 68.41010058 22.64688594 70.58000714 22.5625 72.75 C22.50924627 74.22524176 22.45650611 75.70050216 22.40429688 77.17578125 C22.27644061 80.78416928 22.13795571 84.39192749 22 88 C14.74 88 7.48 88 0 88 C0 58.96 0 29.92 0 0 Z " fill="#EBEBEB" transform="translate(269,205)"/>
<path d="M0 0 C7.59 0 15.18 0 23 0 C23 29.04 23 58.08 23 88 C15.08 88 7.16 88 -1 88 C-1.02255024 76.67388015 -1.04091463 65.34777509 -1.05181217 54.02163792 C-1.05704119 48.76303336 -1.06413918 43.5044449 -1.07543945 38.24584961 C-1.08626766 33.17546873 -1.09227669 28.10510338 -1.09487724 23.03471184 C-1.09673161 21.09573052 -1.10035245 19.15675009 -1.10573006 17.21777534 C-1.1129396 14.5117824 -1.11399098 11.80585444 -1.11352539 9.09985352 C-1.11712067 8.28993454 -1.12071594 7.48001556 -1.12442017 6.64555359 C-1.11405216 1.11405216 -1.11405216 1.11405216 0 0 Z " fill="#EBEBEB" transform="translate(339,205)"/>
<path d="M0 0 C7.59 0 15.18 0 23 0 C23 29.04 23 58.08 23 88 C15.41 88 7.82 88 0 88 C0 58.96 0 29.92 0 0 Z " fill="#ECECEC" transform="translate(229,205)"/>
<path d="M0 0 C7.59 0 15.18 0 23 0 C23 29.04 23 58.08 23 88 C15.41 88 7.82 88 0 88 C0 58.96 0 29.92 0 0 Z " fill="#ECECEC" transform="translate(90,205)"/>
<path d="M0 0 C9.24 0 18.48 0 28 0 C27.67 0.99 27.34 1.98 27 3 C26.67 2.34 26.34 1.68 26 1 C22.24940197 1.10999608 18.49979656 1.24059869 14.75 1.375 C13.15478516 1.42140625 13.15478516 1.42140625 11.52734375 1.46875 C9.99013672 1.52675781 9.99013672 1.52675781 8.421875 1.5859375 C7.47924805 1.6173584 6.53662109 1.6487793 5.56542969 1.68115234 C2.95164571 2.00600977 1.25646966 2.67676162 -1 4 C-0.67 2.68 -0.34 1.36 0 0 Z " fill="#8D8D8D" transform="translate(426,205)"/>
</svg>
